<svg width="191" height="49" viewBox="0 0 191 49" fill="none" xmlns="http://www.w3.org/2000/svg">
<g clip-path="url(#clip0_4509_2467)">
<path d="M17.7657 1.11707C19.6657 1.86179 21.2509 2.87414 22.5213 4.14248V10.1468C20.9811 8.52933 19.2835 7.27262 17.4172 6.38827C15.5509 5.50392 13.7521 5.06174 12.0095 5.06174C10.0084 5.06174 8.44565 5.46901 7.33263 6.28354C6.21962 7.09808 5.65749 8.22679 5.65749 9.68131C5.65749 10.8915 6.00601 11.8806 6.70305 12.6602C7.40009 13.4398 8.55807 14.1147 10.1545 14.7081L15.1575 16.5234C18.2267 17.5939 20.4415 18.9554 21.7906 20.5844C23.1397 22.2251 23.8142 24.3545 23.8142 26.9843C23.8142 29.0905 23.2858 30.9523 22.2403 32.5813C21.1947 34.2104 19.7219 35.4671 17.8332 36.3631C15.9444 37.2591 13.7746 37.7129 11.3013 37.7129C9.79475 37.7129 8.34446 37.4918 6.91666 37.0613C5.50009 36.6307 4.2072 36.0489 3.03797 35.3275C1.86874 34.606 0.890641 33.7682 0.0811757 32.8373V26.6701C1.71135 28.5668 3.53264 30.033 5.53382 31.0686C7.535 32.1043 9.49121 32.6279 11.3912 32.6279C12.7965 32.6279 13.9995 32.4184 15.0225 31.9763C16.0344 31.5457 16.8101 30.929 17.3498 30.1145C17.8782 29.2999 18.148 28.3574 18.148 27.2869C18.148 25.9371 17.7545 24.8549 16.9675 24.0287C16.1805 23.2026 14.8539 22.4462 12.9876 21.748L8.33322 20.0375C5.39891 18.967 3.27407 17.6405 1.94744 16.0463C0.632062 14.4638 -0.03125 12.4158 -0.03125 9.93731C-0.03125 7.97079 0.474666 6.237 1.47525 4.73593C2.47584 3.23486 3.89241 2.07124 5.72495 1.24507C7.55748 0.418903 9.65984 0 12.032 0C13.932 0 15.832 0.372358 17.732 1.11707H17.7657Z" fill="#524F4B"/>
<path d="M44.7873 11.0892V15.5924H26.0234V11.0892H44.7873ZM35.5796 3.63037V26.8911C35.5796 28.8576 36.0293 30.3587 36.9287 31.3943C37.8281 32.4299 38.9974 32.9536 40.4364 32.9536C41.2684 32.9536 42.0329 32.8488 42.7187 32.6394C43.4044 32.4299 44.0902 32.1041 44.7985 31.6503V36.4677C43.8991 36.8866 43.011 37.1891 42.1453 37.3986C41.2796 37.608 40.4477 37.7128 39.6382 37.7128C37.8056 37.7128 36.1867 37.3171 34.7814 36.5259C33.3761 35.7346 32.2855 34.5361 31.4986 32.9536C30.7116 31.371 30.3181 29.4278 30.3181 27.1471V3.63037H35.5684H35.5796Z" fill="#524F4B"/>
<path d="M49.1987 11.0893H54.4041V17.1517C54.6739 15.9067 55.1573 14.778 55.8768 13.754C56.5964 12.7416 57.462 11.9387 58.4739 11.3453C59.4857 10.7635 60.5987 10.4609 61.8017 10.4609C62.4987 10.4609 63.207 10.5424 63.9265 10.7169C64.646 10.8915 65.2644 11.1475 65.804 11.4966V16.7328C65.2644 16.3139 64.6235 16.0114 63.8478 15.8019C63.0833 15.5925 62.3076 15.4878 61.5431 15.4878C60.2052 15.4878 59.0135 15.8718 57.9679 16.6281C56.9224 17.3845 56.068 18.4783 55.4159 19.8863C54.7638 21.3059 54.4265 22.9466 54.3928 24.8084V37.0845H49.1875V11.0893H49.1987Z" fill="#524F4B"/>
<path d="M73.6409 35.8974C71.5835 34.6873 69.9759 33.0466 68.7841 30.9753C67.6037 28.9041 67.0078 26.6118 67.0078 24.0867C67.0078 21.5616 67.6037 19.2577 68.7841 17.1748C69.9646 15.0803 71.5835 13.4396 73.6409 12.2527C75.6983 11.0658 77.9693 10.4607 80.4764 10.4607C82.9835 10.4607 85.2095 11.0542 87.2782 12.2527C89.3468 13.4396 90.977 15.0803 92.1574 17.1748C93.3379 19.2693 93.9338 21.5733 93.9338 24.0867C93.9338 26.6001 93.3379 28.9041 92.1574 30.9753C90.977 33.0466 89.3468 34.6873 87.2782 35.8974C85.2095 37.1076 82.9385 37.7127 80.4764 37.7127C78.0143 37.7127 75.6983 37.1076 73.6409 35.8974ZM67.9185 35.1178L89.9427 9.94873L93.1468 13.009L71.2238 38.1316L67.9185 35.1294V35.1178ZM84.6249 31.6502C85.8616 30.8939 86.8397 29.8466 87.548 28.5201C88.2675 27.1936 88.6273 25.7158 88.6273 24.0867C88.6273 22.4576 88.2675 20.9915 87.548 19.6533C86.8285 18.3268 85.8504 17.2795 84.6249 16.5232C83.3882 15.7668 82.0054 15.3828 80.4764 15.3828C78.9474 15.3828 77.5533 15.7668 76.3279 16.5232C75.0912 17.2795 74.1131 18.3268 73.4048 19.6533C72.6853 20.9798 72.3256 22.4576 72.3256 24.0867C72.3256 25.7158 72.6853 27.1819 73.4048 28.5201C74.1244 29.8466 75.1025 30.8939 76.3279 31.6502C77.5646 32.4066 78.9474 32.7906 80.4764 32.7906C82.0054 32.7906 83.3995 32.4066 84.6249 31.6502Z" fill="#524F4B"/>
<path d="M104.346 37.0845H99.1406V11.0892H104.346V37.0961V37.0845ZM105.976 17.4775C104.897 18.8738 104.346 20.7705 104.346 23.1443V16.0462C104.942 14.3241 105.942 12.951 107.325 11.9503C108.708 10.9496 110.215 10.4492 111.856 10.4492C114.723 10.4492 116.926 11.4267 118.467 13.3699C119.996 15.3248 120.771 18.1291 120.771 21.7829V37.0612H115.521V22.2483C115.521 20.1073 115.049 18.42 114.116 17.1982C113.183 15.9764 111.912 15.3597 110.316 15.3597C108.517 15.3597 107.067 16.0579 105.987 17.4542L105.976 17.4775ZM122.368 17.4542C121.3 18.8389 120.771 20.7356 120.771 23.1559L119.175 17.3029C119.703 15.8484 120.412 14.615 121.277 13.6026C122.143 12.5786 123.166 11.8107 124.335 11.2754C125.504 10.7401 126.809 10.4725 128.236 10.4725C131.036 10.4725 133.228 11.4616 134.791 13.4514C136.354 15.4411 137.141 18.2222 137.141 21.8178V37.0961H131.935V22.2832C131.935 20.1422 131.463 18.4549 130.507 17.2331C129.552 16.0113 128.259 15.3946 126.629 15.3946C124.864 15.3946 123.447 16.0811 122.379 17.4658L122.368 17.4542Z" fill="#524F4B"/>
<path d="M148.885 37.0845H143.68V0.616699H148.885V37.0845Z" fill="#524F4B"/>
<path d="M163.803 37.0845L152.695 11.0776H158.598L167.457 33.71V37.0729H163.803V37.0845ZM173.764 11.0893H179.419L163.252 49.0116H158.452L173.764 11.0893Z" fill="#524F4B"/>
<path d="M185.009 8.35485C184.391 7.98249 183.907 7.48213 183.547 6.84214C183.188 6.20215 183.008 5.51562 183.008 4.7709C183.008 4.02619 183.188 3.33965 183.547 2.69966C183.907 2.05967 184.391 1.55931 185.009 1.18696C185.627 0.814597 186.291 0.628418 187.021 0.628418C187.752 0.628418 188.404 0.814597 189.011 1.18696C189.618 1.55931 190.102 2.05967 190.462 2.69966C190.821 3.33965 191.001 4.02619 191.001 4.7709C191.001 5.51562 190.821 6.20215 190.462 6.84214C190.102 7.48213 189.618 7.98249 189.011 8.35485C188.404 8.72721 187.741 8.91339 187.021 8.91339C186.302 8.91339 185.627 8.72721 185.009 8.35485ZM188.73 7.87776C189.259 7.55195 189.675 7.12141 189.978 6.56287C190.293 6.00434 190.45 5.41089 190.45 4.78254C190.45 4.15418 190.293 3.5491 189.978 3.0022C189.663 2.4553 189.247 2.01312 188.73 1.68731C188.202 1.3615 187.64 1.19859 187.021 1.19859C186.403 1.19859 185.83 1.3615 185.301 1.68731C184.773 2.01312 184.346 2.4553 184.042 3.0022C183.727 3.5491 183.57 4.14255 183.57 4.78254C183.57 5.42253 183.727 6.01597 184.042 6.56287C184.357 7.12141 184.773 7.55195 185.301 7.87776C185.83 8.20358 186.403 8.36648 187.021 8.36648C187.64 8.36648 188.202 8.20358 188.73 7.87776ZM185.627 2.61821H187.269C187.662 2.61821 187.988 2.73457 188.247 2.97893C188.494 3.22329 188.629 3.53747 188.629 3.92146C188.629 4.30545 188.505 4.61963 188.247 4.86399C188 5.10835 187.673 5.22471 187.269 5.22471H186.493V6.93523H185.639V2.61821H185.627ZM187.595 4.32873C187.707 4.224 187.763 4.08437 187.763 3.90982C187.763 3.73528 187.707 3.60728 187.595 3.50256C187.482 3.39783 187.336 3.33965 187.156 3.33965H186.482V4.49163H187.156C187.336 4.49163 187.482 4.43345 187.595 4.32873ZM186.875 4.80581H187.752L188.921 6.93523H187.966L186.875 4.80581Z" fill="#524F4B"/>
</g>
<defs>
<clipPath id="clip0_4509_2467">
<rect width="191" height="49" fill="white"/>
</clipPath>
</defs>
</svg>
